# xmcd
#
# Track frame offsets:
#	150
#	21965
#	44600
#	61750
#	77855
#	96230
#	115715
#	132477
#	152517
#	170245
#	187675
#	203305
#	217120
#	234547
#	248482
#	264467
#	280650
#	302225
#
# Disc length: 4243 seconds
#
# Revision: 1
# Processed by: cddbd v1.5.1PL0 Copyright (c) Steve Scherf et al.
# Submitted via: CDex 1.50Beta5
#
DISCID=f3109112
DTITLE=麻倉未稀 - DREAM DREAM
DYEAR=1900
DGENRE=Pop
TTITLE0=ヒーロー
TTITLE1=NEVER ENDING STORY
TTITLE2=POWR OF LOVE,THE
TTITLE3=MEGA MADNESS
TTITLE4=SLAR FACE
TTITLE5=TAKE A CHANCE
TTITLE6=運命のいたずら
TTITLE7=MORNING MISTY
TTITLE8=ARTUR’S THEME
TTITLE9=フラッシュ・ダンス
TTITLE10=XANADU
TTITLE11=FOR YOUR EYES ONLY
TTITLE12=ファー・フロム・オーバー
TTITLE13=EVERGREEN
TTITLE14=MEMORY
TTITLE15=EASE ON DOWN THE ROAD
TTITLE16=PEOPLE
TTITLE17=ホワイト・クリスマス
EXTD=
EXTT0=
EXTT1=
EXTT2=
EXTT3=
EXTT4=
EXTT5=
EXTT6=
EXTT7=
EXTT8=
EXTT9=
EXTT10=
EXTT11=
EXTT12=
EXTT13=
EXTT14=
EXTT15=
EXTT16=
EXTT17=
PLAYORDER=
